<svg width="1037" height="602" viewBox="0 0 1037 602" fill="none" xmlns="http://www.w3.org/2000/svg">
<path d="M181 315H219.531L112.938 83.6719H110.828L4.23438 315H42.7656L58.2344 280.547H165.531L181 315ZM72.0156 250.031L111.953 161.438L151.75 250.031H72.0156ZM235.984 315H395.453V279.562H292.797L395.453 88.3125H235.984V123.609H338.781L235.984 315ZM513.859 319.219C562.094 319.219 599.641 281.109 599.641 229.078V88.3125H563.781V228.938C563.781 260.297 541.422 283.219 513.719 283.219C486.016 283.219 463.938 260.297 463.938 228.938V88.3125H428.219V229.078C428.219 281.109 465.625 319.219 513.859 319.219ZM809.312 315L743.359 224.297C769.375 215.859 788.219 190.406 788.219 161.156C788.219 120.797 753.625 88.3125 711.438 88.3125H640.984L641.125 315H676.703V227.25H704.547L765.578 315H809.312ZM676.562 197.719V123.609H712.281C733.375 123.609 751.516 139.219 751.516 160.312C751.516 180.562 733.656 197.859 712.281 197.719H676.562ZM991.562 315H1030.09L923.5 83.6719H921.391L814.797 315H853.328L868.797 280.547H976.094L991.562 315ZM882.578 250.031L922.516 161.438L962.312 250.031H882.578Z" fill="white"/>
<path d="M427.409 194.241L417 176L406.591 194.241C341.294 308.671 290.346 431.178 254.965 558.828L243 602C264.75 564.632 349.334 489.895 417 489.895C484.666 489.895 569.25 564.632 591 602L579.035 558.828C543.655 431.178 492.706 308.671 427.409 194.241Z" fill="url(#paint0_linear_43_16)"/>
<path d="M634 343L1034 343" stroke="white" stroke-width="5" stroke-linecap="round"/>
<path d="M3 64L403 64" stroke="white" stroke-width="5" stroke-linecap="round"/>
<defs>
<linearGradient id="paint0_linear_43_16" x1="417" y1="176" x2="417" y2="602" gradientUnits="userSpaceOnUse">
<stop stop-color="#2400FF"/>
<stop offset="0.81978" stop-color="#FF1EE9"/>
</linearGradient>
</defs>
</svg>
